<svg width="497" height="156" viewBox="0 0 497 156" fill="none" xmlns="http://www.w3.org/2000/svg">
<path d="M107.062 35.9706V78.4338C107.062 97.1953 91.9801 112.404 73.375 112.404M107.062 2V18.9853" stroke="#14111D" stroke-width="19.25" stroke-miterlimit="10"/>
<path d="M77.375 146.375C40.1648 146.375 10 115.957 10 78.4339C10 40.911 40.1648 10.4927 77.375 10.4927" stroke="#14111D" stroke-width="19.25" stroke-miterlimit="10"/>
<path d="M76.9999 146.375C99.1309 146.375 118.77 135.615 131.052 119" stroke="#14111D" stroke-width="19.25" stroke-miterlimit="10"/>
<path fill-rule="evenodd" clip-rule="evenodd" d="M158.371 104.277C166.008 104.277 172.542 102.292 177.861 98.2587V102.605H194.278V39.3864H177.861V43.7327C172.542 39.6998 166.008 37.7149 158.371 37.7149C149.853 37.7149 142.462 40.8912 136.292 47.1454C130.075 53.4476 127 61.452 127 70.9957C127 80.6055 130.026 88.6483 136.163 94.9556L136.172 94.9654L136.182 94.9751C142.358 101.151 149.788 104.277 158.371 104.277ZM172.611 57.8586L172.619 57.866L172.626 57.8732C176.09 61.1955 177.861 65.508 177.861 70.9957C177.861 76.4793 176.092 80.8388 172.619 84.245C169.074 87.6414 165.03 89.2925 160.4 89.2925C155.318 89.2925 151.227 87.6446 147.972 84.3937C144.744 81.0908 143.059 76.6931 143.059 70.9957C143.059 65.2927 144.747 60.9429 147.965 57.7247L147.972 57.7171L147.98 57.7094C151.239 54.3796 155.328 52.699 160.4 52.699C165.019 52.699 169.062 54.3818 172.611 57.8586Z" fill="#14111D"/>
<path d="M220.221 79.6896L203.865 83.1497L204.093 84.9739C204.883 91.2962 208.004 96.2097 213.377 99.5566L213.387 99.5629L213.397 99.5691C218.631 102.744 224.939 104.277 232.224 104.277C240.068 104.277 246.577 102.542 251.558 98.8722C256.649 95.1211 259.177 89.8041 259.177 83.1738C259.177 78.557 257.649 74.614 254.542 71.5018C251.494 68.3695 247.326 66.3141 242.199 65.2205L242.192 65.2191L228.13 62.1206C225.931 61.6062 224.519 60.8854 223.679 60.1016C222.901 59.3755 222.524 58.5169 222.524 57.385C222.524 55.7667 223.122 54.5004 224.417 53.4409L224.424 53.4349C225.767 52.3252 227.872 51.6245 231.03 51.6245C234.459 51.6245 237.077 52.4239 239.041 53.8639C241.002 55.3021 242.153 57.1841 242.547 59.6154L242.883 61.6873L258.725 58.3269L258.295 56.3607C257.07 50.7586 253.986 46.2388 249.144 42.8611C244.353 39.3835 238.388 37.7149 231.388 37.7149C223.975 37.7149 217.798 39.5516 213.053 43.4164C208.354 47.2298 205.987 52.3038 205.987 58.4595C205.987 63.1105 207.502 67.0707 210.603 70.1714C213.653 73.2217 218.085 75.2885 223.672 76.5299L223.689 76.5337L236.581 79.16C239.07 79.7193 240.699 80.5002 241.677 81.3616C242.587 82.1623 242.999 83.0812 242.999 84.2483C242.999 85.9052 242.313 87.2174 240.666 88.315L240.651 88.3248L240.637 88.3348C239.016 89.4569 236.639 90.1282 233.299 90.1282C229.428 90.1282 226.4 89.3478 224.093 87.9265C222.025 86.6061 220.813 84.6601 220.48 81.8628L220.221 79.6896Z" fill="#14111D"/>
<path d="M279.101 79.6896L262.745 83.1497L262.973 84.9739C263.763 91.2963 266.884 96.2097 272.257 99.5566L272.267 99.5629L272.277 99.5691C277.511 102.744 283.819 104.277 291.104 104.277C298.948 104.277 305.457 102.542 310.438 98.8722C315.529 95.1211 318.057 89.8041 318.057 83.1738C318.057 78.557 316.529 74.614 313.422 71.5018C310.374 68.3695 306.206 66.3141 301.079 65.2205L301.072 65.2191L287.022 62.1233L287.01 62.1205C284.811 61.6062 283.399 60.8854 282.559 60.1016C281.781 59.3755 281.404 58.5169 281.404 57.385C281.404 55.7667 282.002 54.5004 283.297 53.4409L283.304 53.4349C284.647 52.3252 286.752 51.6245 289.91 51.6245C293.339 51.6245 295.957 52.4239 297.921 53.8639C299.882 55.3021 301.033 57.1841 301.427 59.6154L301.763 61.6873L317.605 58.3269L317.175 56.3607C315.95 50.7586 312.866 46.2388 308.024 42.8611C303.233 39.3835 297.268 37.7149 290.268 37.7149C282.855 37.7149 276.678 39.5516 271.934 43.4164C267.234 47.2298 264.867 52.3038 264.867 58.4595C264.867 63.1105 266.382 67.0707 269.483 70.1714C272.533 73.2217 276.965 75.2885 282.552 76.5299L282.569 76.5337L295.461 79.16C297.95 79.7193 299.579 80.5002 300.558 81.3616C301.467 82.1623 301.879 83.0812 301.879 84.2483C301.879 85.9052 301.193 87.2174 299.546 88.315L299.531 88.3248L299.517 88.3348C297.896 89.4569 295.519 90.1282 292.179 90.1282C288.308 90.1282 285.28 89.3478 282.973 87.9265C280.905 86.6061 279.693 84.6601 279.36 81.8628L279.101 79.6896Z" fill="#14111D"/>
<path fill-rule="evenodd" clip-rule="evenodd" d="M344.63 85.2912C342.08 82.9194 340.392 79.8489 339.619 75.9806H387.293V69.6461L387.292 69.6098C386.957 60.3989 383.755 52.7331 377.624 46.7679C371.597 40.7456 364.246 37.7149 355.684 37.7149C346.577 37.7149 338.785 40.8568 332.431 47.1263C326.114 53.3578 323 61.4151 323 71.1151C323 80.7412 326.117 88.7567 332.431 94.9847L332.44 94.9941C338.781 101.165 346.404 104.277 355.207 104.277C362.213 104.277 368.404 102.646 373.703 99.3132L373.71 99.3087C379.123 95.8721 383.08 90.8583 385.605 84.3774L386.457 82.1897L371.542 78.9822L370.849 80.3691C369.286 83.4944 367.227 85.7511 364.698 87.241C362.161 88.7357 359.026 89.5312 355.207 89.5312C351.192 89.5312 347.695 88.1423 344.63 85.2912ZM345.399 56.1371C348.576 53.8264 351.988 52.699 355.684 52.699C359.482 52.699 362.647 53.798 365.285 55.9499C367.372 57.6529 368.945 60.0162 369.94 63.1455H340.246C341.244 60.2223 342.963 57.9088 345.399 56.1371Z" fill="#14111D"/>
<path d="M440.892 98.6102L435.627 84.295L433.52 85.6822C430.536 87.6475 427.57 88.5761 424.591 88.5761C422.008 88.5761 420.188 87.814 418.888 86.4629C417.594 85.0419 416.801 82.8538 416.801 79.592V53.6542H437.098V39.3864H416.801V21H400.384V39.3864H387.609V53.6542H400.384V80.4277C400.384 87.94 402.394 93.982 406.716 98.2135L406.724 98.221L406.731 98.2285C411.011 102.33 416.768 104.277 423.756 104.277C428.894 104.277 434.139 102.62 439.462 99.4594L440.892 98.6102Z" fill="#14111D"/>
<path d="M457.607 79.6896L441.25 83.1497L441.478 84.9739C442.269 91.2962 445.39 96.2097 450.763 99.5566L450.773 99.5629L450.783 99.5691C456.017 102.744 462.325 104.277 469.61 104.277C477.454 104.277 483.963 102.542 488.944 98.8722C494.035 95.1211 496.563 89.8041 496.563 83.1738C496.563 78.5573 495.035 74.6145 491.928 71.5024C488.881 68.3699 484.712 66.3143 479.585 65.2206L479.578 65.2191L465.527 62.1233L465.515 62.1205C463.317 61.6062 461.904 60.8853 461.065 60.1016C460.287 59.3755 459.909 58.5169 459.909 57.385C459.909 55.7667 460.507 54.5004 461.802 53.4409L461.81 53.4349C463.153 52.3252 465.258 51.6245 468.416 51.6245C471.844 51.6245 474.463 52.4239 476.426 53.8639C478.387 55.3021 479.539 57.1841 479.933 59.6154L480.269 61.6873L496.111 58.3269L495.681 56.3607C494.455 50.7586 491.372 46.2389 486.529 42.8611C481.739 39.3835 475.774 37.7149 468.774 37.7149C461.361 37.7149 455.183 39.5516 450.439 43.4164C445.74 47.2298 443.373 52.3038 443.373 58.4595C443.373 63.1105 444.888 67.0707 447.988 70.1714C451.039 73.2217 455.471 75.2885 461.057 76.5299L461.074 76.5337L473.948 79.1558L473.967 79.16C476.456 79.7193 478.085 80.5002 479.063 81.3616C479.972 82.1623 480.385 83.0812 480.385 84.2483C480.385 85.9052 479.698 87.2174 478.052 88.315L478.037 88.3248L478.023 88.3348C476.402 89.4569 474.025 90.1282 470.684 90.1282C466.813 90.1282 463.786 89.3478 461.479 87.9264C459.411 86.6061 458.199 84.66 457.866 81.8628L457.607 79.6896Z" fill="#14111D"/>
</svg>
